<svg width="180" height="34" viewBox="0 0 180 34" xmlns="http://www.w3.org/2000/svg"><title>Artboard 1</title><path d="M18.293 6.642C17.713 3.847 15.39.254 9.583.254c-4.756 0-8.494 3.63-8.494 7.66 0 3.846 2.612 6.24 6.278 7.04l3.666.798c2.577.545 3.847 2.142 3.847 3.993 0 2.25-1.74 4.1-5.298 4.1-3.884 0-5.916-2.648-6.17-5.516L0 19.417c.472 3.666 3.412 7.66 9.618 7.66 5.48 0 8.893-3.63 8.893-7.623 0-3.594-2.395-6.28-6.677-7.223l-3.848-.835c-2.178-.472-3.303-1.887-3.303-3.74 0-2.394 2.07-4.28 4.973-4.28 3.593 0 5.154 2.54 5.444 4.39l3.193-1.125zm7.957-3.085h-3.12v2.83c0 1.526-.8 2.687-2.687 2.687H19.5v3.085h3.338v9.58c0 3.16 1.888 4.974 4.864 4.974 1.16 0 2.033-.218 2.323-.327v-2.903c-.29.072-.908.145-1.343.145-1.78 0-2.432-.8-2.432-2.397V12.16h3.775V9.073H26.25V3.557zm10.68 22.975V9.074h-3.376v17.458h3.375zM32.79 2.468c0 1.343 1.09 2.432 2.433 2.432 1.38 0 2.468-1.09 2.468-2.432C37.69 1.088 36.604 0 35.224 0 33.88 0 32.79 1.09 32.79 2.468zm16.27 9.22c2.976 0 4.247 1.996 4.682 3.702l3.085-1.307c-.725-2.65-3.12-5.553-7.767-5.553-4.972 0-8.784 3.81-8.784 9.255 0 5.3 3.74 9.292 8.82 9.292 4.537 0 7.042-2.94 7.877-5.445l-3.013-1.306c-.4 1.38-1.597 3.593-4.864 3.593-2.83 0-5.335-2.142-5.335-6.135 0-4.065 2.542-6.098 5.3-6.098zM75.6 9.073h-4.718l-7.55 7.73V.255h-3.375v26.278h3.376V21.27l2.43-2.432 5.7 7.694h4.283l-7.586-10.09 7.44-7.368zm6.76 24.754L93.72 9.074h-3.666l-5.226 12.05-5.445-12.05h-3.92l7.514 15.535-4.356 9.218h3.74zm30.388-27.186c-.58-2.795-2.904-6.388-8.712-6.388-4.754 0-8.493 3.63-8.493 7.66 0 3.846 2.614 6.24 6.28 7.04l3.665.798c2.577.545 3.848 2.142 3.848 3.993 0 2.25-1.743 4.1-5.3 4.1-3.883 0-5.916-2.648-6.17-5.516l-3.412 1.088c.472 3.666 3.412 7.66 9.62 7.66 5.48 0 8.89-3.63 8.89-7.623 0-3.594-2.394-6.28-6.677-7.223l-3.848-.835c-2.178-.472-3.303-1.887-3.303-3.74 0-2.394 2.068-4.28 4.972-4.28 3.592 0 5.153 2.54 5.443 4.39l3.195-1.125zm7.956-3.085h-3.12v2.83c0 1.526-.8 2.687-2.687 2.687h-.944v3.085h3.34v9.58c0 3.16 1.887 4.974 4.863 4.974 1.162 0 2.033-.218 2.323-.327v-2.903c-.29.072-.908.145-1.344.145-1.778 0-2.432-.8-2.432-2.397V12.16h3.775V9.073h-3.776V3.557zm6.215 18.293c0 2.76 2.286 5.227 5.843 5.227 3.12 0 4.863-1.67 5.626-2.904 0 1.27.108 1.924.18 2.36h3.34c-.073-.436-.218-1.344-.218-2.868v-8.747c0-3.412-2.033-6.388-7.26-6.388-3.774 0-6.787 2.323-7.15 5.662l3.267.762c.216-2.033 1.56-3.52 3.955-3.52 2.65 0 3.775 1.415 3.775 3.12 0 .618-.29 1.162-1.343 1.307l-4.72.69c-3.01.437-5.298 2.18-5.298 5.3zm6.315 2.36c-1.743 0-2.83-1.235-2.83-2.54 0-1.562 1.087-2.397 2.54-2.615l5.335-.798v.798c0 3.81-2.25 5.154-5.045 5.154zm20.08-12.523c2.976 0 4.246 1.997 4.682 3.703l3.085-1.307c-.726-2.65-3.122-5.553-7.768-5.553-4.972 0-8.783 3.81-8.783 9.255 0 5.3 3.74 9.292 8.82 9.292 4.538 0 7.042-2.94 7.877-5.445l-3.013-1.306c-.4 1.38-1.597 3.593-4.863 3.593-2.83 0-5.335-2.142-5.335-6.135 0-4.065 2.54-6.098 5.3-6.098zm26.54-2.613h-4.72l-7.548 7.73V.255h-3.376v26.278h3.377V21.27l2.432-2.432 5.697 7.694H180l-7.586-10.09 7.44-7.368z" fill="#fff" fill-rule="evenodd"/></svg>
